<?xml version="1.0" standalone="no"?>
<!DOCTYPE svg PUBLIC "-//W3C//DTD SVG 20010904//EN"
 "http://www.w3.org/TR/2001/REC-SVG-20010904/DTD/svg10.dtd">
<svg version="1.0" xmlns="http://www.w3.org/2000/svg"
 width="700.000000pt" height="700.000000pt" viewBox="0 0 700.000000 700.000000"
 preserveAspectRatio="xMidYMid meet">
<metadata>
Created by potrace 1.14, written by Peter Selinger 2001-2017
</metadata>
<g transform="translate(0.000000,700.000000) scale(0.100000,-0.100000)"
fill="#000000" stroke="none">
<path d="M1045 6096 c-63 -29 -126 -97 -151 -162 -18 -48 -19 -112 -19 -2434
0 -2327 0 -2386 19 -2435 25 -65 94 -137 159 -166 l52 -24 2395 0 2395 0 52
24 c65 29 134 101 159 166 19 49 19 108 19 2435 0 2322 -1 2386 -19 2434 -25
65 -88 133 -151 162 l-50 24 -2405 0 -2405 0 -50 -24z m4495 -2596 l0 -2040
-2040 0 -2040 0 0 2040 0 2040 2040 0 2040 0 0 -2040z"/>
<path d="M2042 4668 l3 -293 1455 0 1455 0 3 293 2 292 -1460 0 -1460 0 2
-292z"/>
<path d="M2040 3500 l0 -290 1460 0 1460 0 0 290 0 290 -1460 0 -1460 0 0
-290z"/>
<path d="M2040 2330 l0 -290 1460 0 1460 0 0 290 0 290 -1460 0 -1460 0 0
-290z"/>
</g>
</svg>
